<mxfile host="app.diagrams.net" modified="2020-03-24T07:48:29.607Z" agent="Mozilla/5.0 (Windows NT 10.0; Win64; x64) AppleWebKit/537.36 (KHTML, like Gecko) Chrome/80.0.3987.149 Safari/537.36" etag="f8WLlByskH3og3ybzjoF" version="12.9.0" type="github">
  <diagram name="Page-1" id="0783ab3e-0a74-02c8-0abd-f7b4e66b4bec">
    <mxGraphModel dx="822" dy="1569" grid="1" gridSize="10" guides="1" tooltips="1" connect="1" arrows="1" fold="1" page="1" pageScale="1" pageWidth="850" pageHeight="1100" background="#ffffff" math="0" shadow="0">
      <root>
        <mxCell id="0" />
        <mxCell id="1" parent="0" />
        <mxCell id="PU8PL5qgKJ-KpqshsjZF-3" value="管理端用户" style="shape=umlActor;verticalLabelPosition=bottom;labelBackgroundColor=#ffffff;verticalAlign=top;html=1;" parent="1" vertex="1">
          <mxGeometry x="30" y="220" width="30" height="60" as="geometry" />
        </mxCell>
        <mxCell id="PU8PL5qgKJ-KpqshsjZF-5" value="患者端-首页" style="shape=umlActor;verticalLabelPosition=bottom;labelBackgroundColor=#ffffff;verticalAlign=top;html=1;rotation=-1;" parent="1" vertex="1">
          <mxGeometry x="20.000000000000004" y="650" width="30" height="50" as="geometry" />
        </mxCell>
        <mxCell id="PU8PL5qgKJ-KpqshsjZF-6" value="信息配置" style="ellipse;whiteSpace=wrap;html=1;" parent="1" vertex="1">
          <mxGeometry x="210" y="220" width="90" height="60" as="geometry" />
        </mxCell>
        <mxCell id="PU8PL5qgKJ-KpqshsjZF-14" value="首页图片配置" style="ellipse;whiteSpace=wrap;html=1;" parent="1" vertex="1">
          <mxGeometry x="510" y="70" width="90" height="40" as="geometry" />
        </mxCell>
        <mxCell id="PU8PL5qgKJ-KpqshsjZF-16" value="就医服务配置" style="ellipse;whiteSpace=wrap;html=1;" parent="1" vertex="1">
          <mxGeometry x="500" y="180" width="110" height="35" as="geometry" />
        </mxCell>
        <mxCell id="PU8PL5qgKJ-KpqshsjZF-17" value="科室权重配置" style="ellipse;whiteSpace=wrap;html=1;" parent="1" vertex="1">
          <mxGeometry x="500" y="300" width="110" height="30" as="geometry" />
        </mxCell>
        <mxCell id="PU8PL5qgKJ-KpqshsjZF-27" value="" style="endArrow=open;endSize=12;dashed=1;html=1;entryX=0;entryY=1;entryDx=0;entryDy=0;" parent="1" source="PU8PL5qgKJ-KpqshsjZF-6" target="PU8PL5qgKJ-KpqshsjZF-14" edge="1">
          <mxGeometry x="0.155" y="-27" width="160" relative="1" as="geometry">
            <mxPoint x="400" y="520" as="sourcePoint" />
            <mxPoint x="560" y="520" as="targetPoint" />
            <mxPoint as="offset" />
          </mxGeometry>
        </mxCell>
        <mxCell id="PU8PL5qgKJ-KpqshsjZF-28" value="include" style="text;html=1;align=center;verticalAlign=middle;resizable=0;points=[];labelBackgroundColor=#ffffff;" parent="PU8PL5qgKJ-KpqshsjZF-27" vertex="1" connectable="0">
          <mxGeometry x="0.0725" y="-2" relative="1" as="geometry">
            <mxPoint as="offset" />
          </mxGeometry>
        </mxCell>
        <mxCell id="PU8PL5qgKJ-KpqshsjZF-29" value="" style="endArrow=open;endSize=12;dashed=1;html=1;exitX=1;exitY=0.5;exitDx=0;exitDy=0;" parent="1" source="PU8PL5qgKJ-KpqshsjZF-6" target="PU8PL5qgKJ-KpqshsjZF-16" edge="1">
          <mxGeometry x="0.155" y="-27" width="160" relative="1" as="geometry">
            <mxPoint x="363.24750863523434" y="242.47885814121446" as="sourcePoint" />
            <mxPoint x="540.5025253169408" y="129.74873734152948" as="targetPoint" />
            <mxPoint as="offset" />
          </mxGeometry>
        </mxCell>
        <mxCell id="PU8PL5qgKJ-KpqshsjZF-30" value="include" style="text;html=1;align=center;verticalAlign=middle;resizable=0;points=[];labelBackgroundColor=#ffffff;" parent="PU8PL5qgKJ-KpqshsjZF-29" vertex="1" connectable="0">
          <mxGeometry x="0.0725" y="-2" relative="1" as="geometry">
            <mxPoint as="offset" />
          </mxGeometry>
        </mxCell>
        <mxCell id="PU8PL5qgKJ-KpqshsjZF-31" value="" style="endArrow=open;endSize=12;dashed=1;html=1;fontStyle=1;exitX=1;exitY=0.633;exitDx=0;exitDy=0;exitPerimeter=0;" parent="1" source="PU8PL5qgKJ-KpqshsjZF-6" target="PU8PL5qgKJ-KpqshsjZF-17" edge="1">
          <mxGeometry x="0.155" y="-27" width="160" relative="1" as="geometry">
            <mxPoint x="373.24750863523434" y="252.47885814121446" as="sourcePoint" />
            <mxPoint x="550.5025253169408" y="139.74873734152948" as="targetPoint" />
            <mxPoint as="offset" />
          </mxGeometry>
        </mxCell>
        <mxCell id="PU8PL5qgKJ-KpqshsjZF-32" value="include" style="text;html=1;align=center;verticalAlign=middle;resizable=0;points=[];labelBackgroundColor=#ffffff;" parent="PU8PL5qgKJ-KpqshsjZF-31" vertex="1" connectable="0">
          <mxGeometry x="0.0725" y="-2" relative="1" as="geometry">
            <mxPoint as="offset" />
          </mxGeometry>
        </mxCell>
        <mxCell id="PU8PL5qgKJ-KpqshsjZF-33" value="极速问诊" style="ellipse;whiteSpace=wrap;html=1;" parent="1" vertex="1">
          <mxGeometry x="120" y="590" width="70" height="40" as="geometry" />
        </mxCell>
        <mxCell id="PU8PL5qgKJ-KpqshsjZF-34" value="快速开药" style="ellipse;whiteSpace=wrap;html=1;" parent="1" vertex="1">
          <mxGeometry x="110" y="450" width="90" height="50" as="geometry" />
        </mxCell>
        <mxCell id="PU8PL5qgKJ-KpqshsjZF-35" value="名医专科" style="ellipse;whiteSpace=wrap;html=1;" parent="1" vertex="1">
          <mxGeometry x="345" y="720" width="80" height="40" as="geometry" />
        </mxCell>
        <mxCell id="PU8PL5qgKJ-KpqshsjZF-36" value="义诊" style="ellipse;whiteSpace=wrap;html=1;" parent="1" vertex="1">
          <mxGeometry x="400" y="780" width="80" height="40" as="geometry" />
        </mxCell>
        <mxCell id="PU8PL5qgKJ-KpqshsjZF-37" value="&lt;font style=&quot;font-size: 10px&quot;&gt;宝中堂/住院绿通/心理咨询&lt;/font&gt;" style="ellipse;whiteSpace=wrap;html=1;" parent="1" vertex="1">
          <mxGeometry x="380" y="840" width="80" height="50" as="geometry" />
        </mxCell>
        <mxCell id="PU8PL5qgKJ-KpqshsjZF-48" value="" style="endArrow=none;html=1;exitX=1;exitY=0.3333333333333333;exitDx=0;exitDy=0;exitPerimeter=0;entryX=0;entryY=0.5;entryDx=0;entryDy=0;" parent="1" source="PU8PL5qgKJ-KpqshsjZF-5" target="PU8PL5qgKJ-KpqshsjZF-33" edge="1">
          <mxGeometry width="50" height="50" relative="1" as="geometry">
            <mxPoint x="230" y="420" as="sourcePoint" />
            <mxPoint x="280" y="370" as="targetPoint" />
          </mxGeometry>
        </mxCell>
        <mxCell id="PU8PL5qgKJ-KpqshsjZF-49" value="" style="endArrow=none;html=1;entryX=0;entryY=0.5;entryDx=0;entryDy=0;" parent="1" target="PU8PL5qgKJ-KpqshsjZF-34" edge="1">
          <mxGeometry width="50" height="50" relative="1" as="geometry">
            <mxPoint x="50" y="668" as="sourcePoint" />
            <mxPoint x="210.0000000000001" y="485" as="targetPoint" />
          </mxGeometry>
        </mxCell>
        <mxCell id="PU8PL5qgKJ-KpqshsjZF-53" value="&lt;span style=&quot;font-size: 10px&quot;&gt;首页图片&lt;/span&gt;" style="ellipse;whiteSpace=wrap;html=1;" parent="1" vertex="1">
          <mxGeometry x="160" y="820" width="70" height="30" as="geometry" />
        </mxCell>
        <mxCell id="PU8PL5qgKJ-KpqshsjZF-54" value="" style="endArrow=none;html=1;entryX=0.005;entryY=0.398;entryDx=0;entryDy=0;entryPerimeter=0;" parent="1" target="PU8PL5qgKJ-KpqshsjZF-53" edge="1">
          <mxGeometry width="50" height="50" relative="1" as="geometry">
            <mxPoint x="50" y="670" as="sourcePoint" />
            <mxPoint x="210.69999999999993" y="891.01" as="targetPoint" />
          </mxGeometry>
        </mxCell>
        <mxCell id="PU8PL5qgKJ-KpqshsjZF-55" value="就医服务" style="ellipse;whiteSpace=wrap;html=1;" parent="1" vertex="1">
          <mxGeometry x="160" y="710" width="70" height="40" as="geometry" />
        </mxCell>
        <mxCell id="PU8PL5qgKJ-KpqshsjZF-56" value="" style="endArrow=none;html=1;entryX=0;entryY=0.429;entryDx=0;entryDy=0;entryPerimeter=0;" parent="1" target="PU8PL5qgKJ-KpqshsjZF-55" edge="1">
          <mxGeometry width="50" height="50" relative="1" as="geometry">
            <mxPoint x="50" y="670" as="sourcePoint" />
            <mxPoint x="210.0000000000001" y="585" as="targetPoint" />
          </mxGeometry>
        </mxCell>
        <mxCell id="PU8PL5qgKJ-KpqshsjZF-57" value="" style="endArrow=open;endSize=12;dashed=1;html=1;fontStyle=1;exitX=0.883;exitY=0.157;exitDx=0;exitDy=0;exitPerimeter=0;entryX=0.016;entryY=0.296;entryDx=0;entryDy=0;entryPerimeter=0;" parent="1" source="PU8PL5qgKJ-KpqshsjZF-55" target="PU8PL5qgKJ-KpqshsjZF-35" edge="1">
          <mxGeometry x="0.155" y="-27" width="160" relative="1" as="geometry">
            <mxPoint x="331.9" y="308.14999999999986" as="sourcePoint" />
            <mxPoint x="540.0062095564006" y="410.50193417287005" as="targetPoint" />
            <mxPoint as="offset" />
          </mxGeometry>
        </mxCell>
        <mxCell id="PU8PL5qgKJ-KpqshsjZF-58" value="include" style="text;html=1;align=center;verticalAlign=middle;resizable=0;points=[];labelBackgroundColor=#ffffff;" parent="PU8PL5qgKJ-KpqshsjZF-57" vertex="1" connectable="0">
          <mxGeometry x="0.0725" y="-2" relative="1" as="geometry">
            <mxPoint as="offset" />
          </mxGeometry>
        </mxCell>
        <mxCell id="PU8PL5qgKJ-KpqshsjZF-59" value="" style="endArrow=open;endSize=12;dashed=1;html=1;fontStyle=1;exitX=1;exitY=0.5;exitDx=0;exitDy=0;entryX=0;entryY=0.5;entryDx=0;entryDy=0;" parent="1" source="PU8PL5qgKJ-KpqshsjZF-55" target="PU8PL5qgKJ-KpqshsjZF-36" edge="1">
          <mxGeometry x="0.155" y="-27" width="160" relative="1" as="geometry">
            <mxPoint x="293.62" y="730.99" as="sourcePoint" />
            <mxPoint x="391.28" y="661.8399999999999" as="targetPoint" />
            <mxPoint as="offset" />
          </mxGeometry>
        </mxCell>
        <mxCell id="PU8PL5qgKJ-KpqshsjZF-60" value="include" style="text;html=1;align=center;verticalAlign=middle;resizable=0;points=[];labelBackgroundColor=#ffffff;" parent="PU8PL5qgKJ-KpqshsjZF-59" vertex="1" connectable="0">
          <mxGeometry x="0.0725" y="-2" relative="1" as="geometry">
            <mxPoint as="offset" />
          </mxGeometry>
        </mxCell>
        <mxCell id="PU8PL5qgKJ-KpqshsjZF-61" value="" style="endArrow=open;endSize=12;dashed=1;html=1;fontStyle=1;exitX=0.883;exitY=0.843;exitDx=0;exitDy=0;exitPerimeter=0;entryX=0.002;entryY=0.363;entryDx=0;entryDy=0;entryPerimeter=0;" parent="1" source="PU8PL5qgKJ-KpqshsjZF-55" target="PU8PL5qgKJ-KpqshsjZF-37" edge="1">
          <mxGeometry x="0.155" y="-27" width="160" relative="1" as="geometry">
            <mxPoint x="303.62" y="740.99" as="sourcePoint" />
            <mxPoint x="401.28" y="671.8399999999999" as="targetPoint" />
            <mxPoint as="offset" />
          </mxGeometry>
        </mxCell>
        <mxCell id="PU8PL5qgKJ-KpqshsjZF-62" value="include" style="text;html=1;align=center;verticalAlign=middle;resizable=0;points=[];labelBackgroundColor=#ffffff;" parent="PU8PL5qgKJ-KpqshsjZF-61" vertex="1" connectable="0">
          <mxGeometry x="0.0725" y="-2" relative="1" as="geometry">
            <mxPoint as="offset" />
          </mxGeometry>
        </mxCell>
        <mxCell id="PU8PL5qgKJ-KpqshsjZF-63" value="&lt;span style=&quot;font-size: 10px&quot;&gt;名医专科&lt;br&gt;根据二级科室展示&lt;br&gt;&lt;/span&gt;" style="ellipse;whiteSpace=wrap;html=1;" parent="1" vertex="1">
          <mxGeometry x="160" y="930" width="100" height="50" as="geometry" />
        </mxCell>
        <mxCell id="PU8PL5qgKJ-KpqshsjZF-66" value="" style="endArrow=none;html=1;entryX=0;entryY=0.429;entryDx=0;entryDy=0;entryPerimeter=0;" parent="1" target="PU8PL5qgKJ-KpqshsjZF-63" edge="1">
          <mxGeometry width="50" height="50" relative="1" as="geometry">
            <mxPoint x="50" y="670" as="sourcePoint" />
            <mxPoint x="170.69999999999993" y="857.8600000000001" as="targetPoint" />
          </mxGeometry>
        </mxCell>
        <mxCell id="PU8PL5qgKJ-KpqshsjZF-67" value="&lt;span style=&quot;font-size: 10px&quot;&gt;医生搜索&lt;/span&gt;" style="ellipse;whiteSpace=wrap;html=1;" parent="1" vertex="1">
          <mxGeometry x="380" y="940" width="80" height="50" as="geometry" />
        </mxCell>
        <mxCell id="PU8PL5qgKJ-KpqshsjZF-68" value="" style="endArrow=open;endSize=12;dashed=1;html=1;fontStyle=1;exitX=0.981;exitY=0.337;exitDx=0;exitDy=0;exitPerimeter=0;entryX=0.009;entryY=0.42;entryDx=0;entryDy=0;entryPerimeter=0;" parent="1" source="PU8PL5qgKJ-KpqshsjZF-63" target="PU8PL5qgKJ-KpqshsjZF-67" edge="1">
          <mxGeometry x="0.155" y="-27" width="160" relative="1" as="geometry">
            <mxPoint x="293.62" y="779.01" as="sourcePoint" />
            <mxPoint x="390.15999999999997" y="808.1499999999999" as="targetPoint" />
            <mxPoint as="offset" />
          </mxGeometry>
        </mxCell>
        <mxCell id="PU8PL5qgKJ-KpqshsjZF-69" value="include" style="text;html=1;align=center;verticalAlign=middle;resizable=0;points=[];labelBackgroundColor=#ffffff;" parent="PU8PL5qgKJ-KpqshsjZF-68" vertex="1" connectable="0">
          <mxGeometry x="0.0725" y="-2" relative="1" as="geometry">
            <mxPoint as="offset" />
          </mxGeometry>
        </mxCell>
        <mxCell id="PU8PL5qgKJ-KpqshsjZF-70" value="IM通讯" style="ellipse;whiteSpace=wrap;html=1;" parent="1" vertex="1">
          <mxGeometry x="290" y="600" width="80" height="40" as="geometry" />
        </mxCell>
        <mxCell id="PU8PL5qgKJ-KpqshsjZF-71" value="" style="endArrow=open;endSize=12;dashed=1;html=1;fontStyle=1;entryX=0;entryY=0.5;entryDx=0;entryDy=0;" parent="1" target="PU8PL5qgKJ-KpqshsjZF-70" edge="1">
          <mxGeometry x="0.155" y="-27" width="160" relative="1" as="geometry">
            <mxPoint x="190" y="610" as="sourcePoint" />
            <mxPoint x="391.28" y="661.8399999999999" as="targetPoint" />
            <mxPoint as="offset" />
          </mxGeometry>
        </mxCell>
        <mxCell id="PU8PL5qgKJ-KpqshsjZF-72" value="include" style="text;html=1;align=center;verticalAlign=middle;resizable=0;points=[];labelBackgroundColor=#ffffff;" parent="PU8PL5qgKJ-KpqshsjZF-71" vertex="1" connectable="0">
          <mxGeometry x="0.0725" y="-2" relative="1" as="geometry">
            <mxPoint as="offset" />
          </mxGeometry>
        </mxCell>
        <mxCell id="PU8PL5qgKJ-KpqshsjZF-73" value="IM初始化" style="ellipse;whiteSpace=wrap;html=1;" parent="1" vertex="1">
          <mxGeometry x="220" y="530" width="80" height="40" as="geometry" />
        </mxCell>
        <mxCell id="PU8PL5qgKJ-KpqshsjZF-74" value="" style="endArrow=open;endSize=12;dashed=1;html=1;fontStyle=1;exitX=1;exitY=0.5;exitDx=0;exitDy=0;" parent="1" source="PU8PL5qgKJ-KpqshsjZF-33" target="PU8PL5qgKJ-KpqshsjZF-73" edge="1">
          <mxGeometry x="0.155" y="-27" width="160" relative="1" as="geometry">
            <mxPoint x="220.44999999999993" y="615.55" as="sourcePoint" />
            <mxPoint x="275.03999999999996" y="579.28" as="targetPoint" />
            <mxPoint as="offset" />
          </mxGeometry>
        </mxCell>
        <mxCell id="PU8PL5qgKJ-KpqshsjZF-75" value="include" style="text;html=1;align=center;verticalAlign=middle;resizable=0;points=[];labelBackgroundColor=#ffffff;" parent="PU8PL5qgKJ-KpqshsjZF-74" vertex="1" connectable="0">
          <mxGeometry x="0.0725" y="-2" relative="1" as="geometry">
            <mxPoint as="offset" />
          </mxGeometry>
        </mxCell>
        <mxCell id="PU8PL5qgKJ-KpqshsjZF-76" value="查看诊断" style="ellipse;whiteSpace=wrap;html=1;" parent="1" vertex="1">
          <mxGeometry x="425" y="440" width="60" height="30" as="geometry" />
        </mxCell>
        <mxCell id="PU8PL5qgKJ-KpqshsjZF-77" value="查看处方" style="ellipse;whiteSpace=wrap;html=1;" parent="1" vertex="1">
          <mxGeometry x="460" y="480" width="60" height="30" as="geometry" />
        </mxCell>
        <mxCell id="PU8PL5qgKJ-KpqshsjZF-78" value="开具诊断" style="ellipse;whiteSpace=wrap;html=1;" parent="1" vertex="1">
          <mxGeometry x="470" y="530" width="60" height="30" as="geometry" />
        </mxCell>
        <mxCell id="PU8PL5qgKJ-KpqshsjZF-79" value="开具处方" style="ellipse;whiteSpace=wrap;html=1;" parent="1" vertex="1">
          <mxGeometry x="470" y="580" width="60" height="30" as="geometry" />
        </mxCell>
        <mxCell id="PU8PL5qgKJ-KpqshsjZF-81" value="风险同意书" style="ellipse;whiteSpace=wrap;html=1;" parent="1" vertex="1">
          <mxGeometry x="470" y="640" width="60" height="30" as="geometry" />
        </mxCell>
        <mxCell id="PU8PL5qgKJ-KpqshsjZF-82" value="" style="endArrow=open;endSize=12;dashed=1;html=1;fontStyle=1;exitX=1;exitY=0;exitDx=0;exitDy=0;entryX=0;entryY=1;entryDx=0;entryDy=0;" parent="1" source="PU8PL5qgKJ-KpqshsjZF-70" target="PU8PL5qgKJ-KpqshsjZF-76" edge="1">
          <mxGeometry x="0.155" y="-27" width="160" relative="1" as="geometry">
            <mxPoint x="231.81000000000006" y="726.28" as="sourcePoint" />
            <mxPoint x="356.28" y="741.8399999999999" as="targetPoint" />
            <mxPoint as="offset" />
          </mxGeometry>
        </mxCell>
        <mxCell id="PU8PL5qgKJ-KpqshsjZF-83" value="include" style="text;html=1;align=center;verticalAlign=middle;resizable=0;points=[];labelBackgroundColor=#ffffff;" parent="PU8PL5qgKJ-KpqshsjZF-82" vertex="1" connectable="0">
          <mxGeometry x="0.0725" y="-2" relative="1" as="geometry">
            <mxPoint as="offset" />
          </mxGeometry>
        </mxCell>
        <mxCell id="PU8PL5qgKJ-KpqshsjZF-84" value="" style="endArrow=open;endSize=12;dashed=1;html=1;fontStyle=1;exitX=0.92;exitY=0.125;exitDx=0;exitDy=0;entryX=0;entryY=0.5;entryDx=0;entryDy=0;exitPerimeter=0;" parent="1" source="PU8PL5qgKJ-KpqshsjZF-70" target="PU8PL5qgKJ-KpqshsjZF-77" edge="1">
          <mxGeometry x="0.155" y="-27" width="160" relative="1" as="geometry">
            <mxPoint x="368.2842712474619" y="615.8578643762689" as="sourcePoint" />
            <mxPoint x="450" y="475" as="targetPoint" />
            <mxPoint as="offset" />
          </mxGeometry>
        </mxCell>
        <mxCell id="PU8PL5qgKJ-KpqshsjZF-85" value="include" style="text;html=1;align=center;verticalAlign=middle;resizable=0;points=[];labelBackgroundColor=#ffffff;" parent="PU8PL5qgKJ-KpqshsjZF-84" vertex="1" connectable="0">
          <mxGeometry x="0.0725" y="-2" relative="1" as="geometry">
            <mxPoint as="offset" />
          </mxGeometry>
        </mxCell>
        <mxCell id="PU8PL5qgKJ-KpqshsjZF-86" value="" style="endArrow=open;endSize=12;dashed=1;html=1;fontStyle=1;exitX=0.927;exitY=0.225;exitDx=0;exitDy=0;entryX=0;entryY=0.5;entryDx=0;entryDy=0;exitPerimeter=0;" parent="1" source="PU8PL5qgKJ-KpqshsjZF-70" target="PU8PL5qgKJ-KpqshsjZF-78" edge="1">
          <mxGeometry x="0.155" y="-27" width="160" relative="1" as="geometry">
            <mxPoint x="378.2842712474619" y="625.8578643762689" as="sourcePoint" />
            <mxPoint x="460" y="485" as="targetPoint" />
            <mxPoint as="offset" />
          </mxGeometry>
        </mxCell>
        <mxCell id="PU8PL5qgKJ-KpqshsjZF-87" value="include" style="text;html=1;align=center;verticalAlign=middle;resizable=0;points=[];labelBackgroundColor=#ffffff;" parent="PU8PL5qgKJ-KpqshsjZF-86" vertex="1" connectable="0">
          <mxGeometry x="0.0725" y="-2" relative="1" as="geometry">
            <mxPoint as="offset" />
          </mxGeometry>
        </mxCell>
        <mxCell id="PU8PL5qgKJ-KpqshsjZF-88" value="" style="endArrow=open;endSize=12;dashed=1;html=1;fontStyle=1;exitX=0.998;exitY=0.282;exitDx=0;exitDy=0;entryX=-0.036;entryY=0.652;entryDx=0;entryDy=0;entryPerimeter=0;exitPerimeter=0;" parent="1" source="PU8PL5qgKJ-KpqshsjZF-70" target="PU8PL5qgKJ-KpqshsjZF-79" edge="1">
          <mxGeometry x="0.155" y="-27" width="160" relative="1" as="geometry">
            <mxPoint x="388.2842712474619" y="635.8578643762689" as="sourcePoint" />
            <mxPoint x="470" y="495" as="targetPoint" />
            <mxPoint as="offset" />
          </mxGeometry>
        </mxCell>
        <mxCell id="PU8PL5qgKJ-KpqshsjZF-89" value="include" style="text;html=1;align=center;verticalAlign=middle;resizable=0;points=[];labelBackgroundColor=#ffffff;" parent="PU8PL5qgKJ-KpqshsjZF-88" vertex="1" connectable="0">
          <mxGeometry x="0.0725" y="-2" relative="1" as="geometry">
            <mxPoint as="offset" />
          </mxGeometry>
        </mxCell>
        <mxCell id="PU8PL5qgKJ-KpqshsjZF-90" value="" style="endArrow=open;endSize=12;dashed=1;html=1;fontStyle=1;exitX=1;exitY=0.5;exitDx=0;exitDy=0;entryX=0;entryY=0.5;entryDx=0;entryDy=0;" parent="1" source="PU8PL5qgKJ-KpqshsjZF-70" target="PU8PL5qgKJ-KpqshsjZF-81" edge="1">
          <mxGeometry x="0.155" y="-27" width="160" relative="1" as="geometry">
            <mxPoint x="398.2842712474619" y="645.8578643762689" as="sourcePoint" />
            <mxPoint x="480" y="505" as="targetPoint" />
            <mxPoint as="offset" />
          </mxGeometry>
        </mxCell>
        <mxCell id="PU8PL5qgKJ-KpqshsjZF-91" value="include" style="text;html=1;align=center;verticalAlign=middle;resizable=0;points=[];labelBackgroundColor=#ffffff;" parent="PU8PL5qgKJ-KpqshsjZF-90" vertex="1" connectable="0">
          <mxGeometry x="0.0725" y="-2" relative="1" as="geometry">
            <mxPoint as="offset" />
          </mxGeometry>
        </mxCell>
        <mxCell id="PU8PL5qgKJ-KpqshsjZF-92" value="查看就诊人" style="ellipse;whiteSpace=wrap;html=1;" parent="1" vertex="1">
          <mxGeometry x="600" y="445" width="70" height="20" as="geometry" />
        </mxCell>
        <mxCell id="PU8PL5qgKJ-KpqshsjZF-93" value="新增就诊人" style="ellipse;whiteSpace=wrap;html=1;" parent="1" vertex="1">
          <mxGeometry x="600" y="500" width="70" height="20" as="geometry" />
        </mxCell>
        <mxCell id="PU8PL5qgKJ-KpqshsjZF-94" value="" style="endArrow=open;endSize=12;dashed=1;html=1;fontStyle=1;exitX=1.002;exitY=0.319;exitDx=0;exitDy=0;entryX=0;entryY=0.5;entryDx=0;entryDy=0;exitPerimeter=0;" parent="1" source="PU8PL5qgKJ-KpqshsjZF-77" target="PU8PL5qgKJ-KpqshsjZF-92" edge="1">
          <mxGeometry x="0.155" y="-27" width="160" relative="1" as="geometry">
            <mxPoint x="373.6" y="615" as="sourcePoint" />
            <mxPoint x="470" y="505" as="targetPoint" />
            <mxPoint as="offset" />
          </mxGeometry>
        </mxCell>
        <mxCell id="PU8PL5qgKJ-KpqshsjZF-95" value="include" style="text;html=1;align=center;verticalAlign=middle;resizable=0;points=[];labelBackgroundColor=#ffffff;" parent="PU8PL5qgKJ-KpqshsjZF-94" vertex="1" connectable="0">
          <mxGeometry x="0.0725" y="-2" relative="1" as="geometry">
            <mxPoint as="offset" />
          </mxGeometry>
        </mxCell>
        <mxCell id="PU8PL5qgKJ-KpqshsjZF-96" value="" style="endArrow=open;endSize=12;dashed=1;html=1;fontStyle=1;exitX=1;exitY=0.5;exitDx=0;exitDy=0;entryX=0.039;entryY=0.721;entryDx=0;entryDy=0;entryPerimeter=0;" parent="1" source="PU8PL5qgKJ-KpqshsjZF-77" target="PU8PL5qgKJ-KpqshsjZF-93" edge="1">
          <mxGeometry x="0.155" y="-27" width="160" relative="1" as="geometry">
            <mxPoint x="383.6" y="625" as="sourcePoint" />
            <mxPoint x="480" y="515" as="targetPoint" />
            <mxPoint as="offset" />
          </mxGeometry>
        </mxCell>
        <mxCell id="PU8PL5qgKJ-KpqshsjZF-97" value="include" style="text;html=1;align=center;verticalAlign=middle;resizable=0;points=[];labelBackgroundColor=#ffffff;" parent="PU8PL5qgKJ-KpqshsjZF-96" vertex="1" connectable="0">
          <mxGeometry x="0.0725" y="-2" relative="1" as="geometry">
            <mxPoint as="offset" />
          </mxGeometry>
        </mxCell>
        <mxCell id="7Aoh7Ow6qL1tTK4FSaNn-2" value="" style="endArrow=none;html=1;entryX=0;entryY=0.5;entryDx=0;entryDy=0;exitX=1;exitY=0.3333333333333333;exitDx=0;exitDy=0;exitPerimeter=0;" edge="1" parent="1" source="PU8PL5qgKJ-KpqshsjZF-3" target="PU8PL5qgKJ-KpqshsjZF-6">
          <mxGeometry width="50" height="50" relative="1" as="geometry">
            <mxPoint x="110" y="170" as="sourcePoint" />
            <mxPoint x="160" y="120" as="targetPoint" />
          </mxGeometry>
        </mxCell>
        <mxCell id="7Aoh7Ow6qL1tTK4FSaNn-3" value="结束问诊" style="ellipse;whiteSpace=wrap;html=1;" vertex="1" parent="1">
          <mxGeometry x="470" y="690" width="60" height="30" as="geometry" />
        </mxCell>
        <mxCell id="7Aoh7Ow6qL1tTK4FSaNn-5" value="" style="endArrow=open;endSize=12;dashed=1;html=1;fontStyle=1;exitX=0.613;exitY=1;exitDx=0;exitDy=0;entryX=0;entryY=0.5;entryDx=0;entryDy=0;exitPerimeter=0;" edge="1" parent="1" source="PU8PL5qgKJ-KpqshsjZF-70" target="7Aoh7Ow6qL1tTK4FSaNn-3">
          <mxGeometry x="0.155" y="-27" width="160" relative="1" as="geometry">
            <mxPoint x="380" y="630" as="sourcePoint" />
            <mxPoint x="480" y="665" as="targetPoint" />
            <mxPoint as="offset" />
          </mxGeometry>
        </mxCell>
        <mxCell id="7Aoh7Ow6qL1tTK4FSaNn-6" value="include" style="text;html=1;align=center;verticalAlign=middle;resizable=0;points=[];labelBackgroundColor=#ffffff;" vertex="1" connectable="0" parent="7Aoh7Ow6qL1tTK4FSaNn-5">
          <mxGeometry x="0.0725" y="-2" relative="1" as="geometry">
            <mxPoint as="offset" />
          </mxGeometry>
        </mxCell>
      </root>
    </mxGraphModel>
  </diagram>
</mxfile>
